<?xml version="1.0" encoding="UTF-8" standalone="no"?>
<!-- Created with Inkscape (http://www.inkscape.org/) -->

<svg
   version="1.1"
   id="svg18"
   width="225"
   height="224"
   viewBox="0 0 225 224"
   sodipodi:docname="deeplearning.png"
   inkscape:export-filename="../a6e56a06/deeplearning.svg"
   inkscape:export-xdpi="96"
   inkscape:export-ydpi="96"
   xmlns:inkscape="http://www.inkscape.org/namespaces/inkscape"
   xmlns:sodipodi="http://sodipodi.sourceforge.net/DTD/sodipodi-0.dtd"
   xmlns="http://www.w3.org/2000/svg"
   xmlns:svg="http://www.w3.org/2000/svg">
  <defs
     id="defs22" />
  <sodipodi:namedview
     id="namedview20"
     pagecolor="#ffffff"
     bordercolor="#000000"
     borderopacity="0.25"
     inkscape:showpageshadow="2"
     inkscape:pageopacity="0.0"
     inkscape:pagecheckerboard="0"
     inkscape:deskcolor="#d1d1d1"
     showgrid="false" />
  <g
     inkscape:groupmode="layer"
     inkscape:label="Image"
     id="g24">
    <path
       style="fill:#ff4961;stroke:none;stroke-width:1.07964"
       d="M 99.159778,1.4253725 C 81.099368,4.0116022 63.487557,10.17558 48.416782,20.618055 -29.524986,74.624032 -4.7726431,201.14736 88.363389,220.98139 c 12.098421,2.57709 25.472981,3.68804 37.787331,1.92499 18.24696,-2.61272 35.50497,-8.88326 50.74298,-19.34603 C 255.15559,149.82028 229.79813,23.009992 136.9471,3.3496762 124.84004,0.78609729 111.48168,-0.33906907 99.159778,1.4253725 m 10.796372,6.3237206 c 50.78725,-5.9139439 90.5935,45.4925999 87.35351,92.5406369 -2.86752,41.65136 -36.55654,74.70555 -77.63677,78.63004 C 56.624514,184.94415 13.203632,116.49402 35.950094,60.34312 48.856519,28.482785 77.01607,11.584831 109.95615,7.7490931 M 100.2394,12.23337 c -58.811762,9.18556 -86.604344,85.016097 -41.010367,126.73547 8.548142,7.82198 19.193697,13.63367 30.21399,17.08743 12.399647,3.88562 25.060557,4.1253 37.787337,2.06103 9.93267,-1.6119 19.63861,-5.63031 28.07058,-11.07816 8.20093,-5.29887 14.90981,-11.835 20.59518,-19.75846 C 214.69615,73.211865 162.62737,2.4893126 100.2394,12.23337 m 5.3982,6.312967 c 51.90467,-6.371268 84.89301,59.898966 45.34047,95.590833 -10.11728,9.1305 -22.30424,13.40694 -35.62373,14.99509 C 73.122139,134.16661 39.493034,87.635937 58.540008,49.54674 67.619872,31.389494 86.030723,20.953066 105.6376,18.546337 m -2.15928,4.510943 C 45.391744,33.5302 61.811527,128.54926 120.75253,117.28107 177.96471,106.34434 161.82304,12.537828 103.47832,23.05728 m 3.23891,4.16859 c 32.09332,-5.388148 39.83001,43.371328 7.55747,48.806118 C 83.453735,81.222347 75.645793,32.442465 106.71723,27.22587 Z"
       id="path186" />
  </g>
</svg>
