<?xml version="1.0" encoding="UTF-8" standalone="no"?>
<!-- Created with Inkscape (http://www.inkscape.org/) -->

<svg
   version="1.2"
   width="499.99905"
   height="238.26123"
   id="svg2"
   sodipodi:docname="iter.svg"
   inkscape:version="1.2.2 (b0a8486541, 2022-12-01, custom)"
   xmlns:inkscape="http://www.inkscape.org/namespaces/inkscape"
   xmlns:sodipodi="http://sodipodi.sourceforge.net/DTD/sodipodi-0.dtd"
   xmlns="http://www.w3.org/2000/svg"
   xmlns:svg="http://www.w3.org/2000/svg"
   xmlns:rdf="http://www.w3.org/1999/02/22-rdf-syntax-ns#"
   xmlns:cc="http://creativecommons.org/ns#"
   xmlns:dc="http://purl.org/dc/elements/1.1/">
  <sodipodi:namedview
     id="namedview23"
     pagecolor="#ffffff"
     bordercolor="#000000"
     borderopacity="0.25"
     inkscape:showpageshadow="2"
     inkscape:pageopacity="0.0"
     inkscape:pagecheckerboard="0"
     inkscape:deskcolor="#d1d1d1"
     showgrid="false"
     inkscape:zoom="2.620005"
     inkscape:cx="232.82399"
     inkscape:cy="100.19065"
     inkscape:window-width="1848"
     inkscape:window-height="1016"
     inkscape:window-x="1992"
     inkscape:window-y="27"
     inkscape:window-maximized="1"
     inkscape:current-layer="layer1" />
  <defs
     id="defs4" />
  <metadata
     id="metadata7">
    <rdf:RDF>
      <cc:Work
         rdf:about="">
        <dc:format>image/svg+xml</dc:format>
        <dc:type
           rdf:resource="http://purl.org/dc/dcmitype/StillImage" />
        <dc:title />
      </cc:Work>
    </rdf:RDF>
  </metadata>
  <g
     transform="translate(1277.8166,472.53256)"
     id="layer1">
    <path
       d="m -1265.5238,-242.5039 c 0,-7.66347 1,-19.77415 2.4021,-29.16107 4.6151,-30.90045 15.3171,-59.58539 32.1757,-86.24327 0.7668,-1.21236 1.5731,-2.49361 1.792,-2.84721 0.7495,-1.21096 7.0022,-10.13233 8.1958,-11.69385 3.7434,-4.89701 10.4854,-13.21484 11.2173,-13.8393 0.06,-0.0506 0.3547,-0.38117 0.6567,-0.73477 3.7359,-4.37539 13.4535,-14.19256 18.3658,-18.55411 2.5113,-2.22953 3.6267,-3.21193 4.5873,-4.03996 2.0328,-1.75238 3.8408,-3.27866 4.4823,-3.78404 0.3677,-0.28975 0.7117,-0.57668 0.7641,-0.63761 0.239,-0.27704 9.101,-7.01812 10.802,-8.21668 1.047,-0.73771 2.8494,-2.00864 4.0055,-2.82427 5.9698,-4.21253 16.361,-10.4892 24.1692,-14.59924 24.9827,-13.15021 52.0498,-21.809 80.2459,-25.67068 18.8666,-2.58397 39.3412,-3.01962 57.1751,-1.21656 1.0247,0.10357 2.7011,0.27188 3.7257,0.374 2.29396,0.22864 10.74556,1.37535 13.42216,1.82114 12.122,2.01886 24.35742,5.02769 36.21497,8.90562 5.32186,1.74044 14.10384,4.97221 16.99563,6.25435 0.31524,0.13977 1.38995,0.59681 2.38824,1.01562 2.71693,1.13984 5.19186,2.26478 9.74418,4.42904 17.82915,8.47635 34.98856,19.53171 50.5358,32.55885 3.34144,2.79984 11.17516,9.87713 12.97924,11.72593 0.62337,0.63885 1.95602,1.98904 2.96145,3.00041 2.56203,2.5772 3.93149,4.0068 5.36503,5.60066 0.68153,0.75773 1.2857,1.41902 1.34268,1.46954 0.44055,0.39074 4.14664,4.64505 6.00074,6.88845 1.2525,1.51544 2.58725,3.12734 2.96613,3.58198 4.35324,5.22368 11.22264,14.87707 15.59907,21.92105 0.88907,1.43098 1.69415,2.72578 1.78906,2.87733 4.3132,6.88739 9.95156,17.74529 13.68823,26.35976 0.78881,1.81854 1.63634,3.76109 1.88337,4.31675 1.30812,2.94248 5.09993,13.39437 6.39754,17.6344 1.88488,6.15896 1.89019,6.17724 2.88904,9.91936 4.52062,16.93624 6.76689,32.93612 7.35631,52.39806 l 0.13213,4.36267 h -61.40742 c 0,0 -1.34706,-23.25236 1.6599,-30.6765 0.93585,-2.30809 3.60471,-5.35614 5.81476,-6.64092 3.1435,-1.82744 5.78632,-2.45355 10.31743,-2.44434 2.73364,0.006 3.33899,0.0622 4.55602,0.42578 0.77192,0.23066 1.42882,0.39287 1.45977,0.36046 0.4138,-10.2613 0.91686,-26.90848 0.91686,-26.90848 l -1.22137,-0.26027 c -1.52081,-0.32408 -6.09162,-0.32527 -7.81093,-0.003 -6.82941,1.28394 -12.65555,5.87196 -16.61999,13.08803 l -0.89879,1.63593 -0.126,-3.61719 c -0.11629,-3.20738 -0.126,-9.61994 -0.126,-9.61994 h -31.56364 l 0.43598,64.65949 h -13.15371 l -0.11471,-1.33177 c -0.0631,-0.73247 -0.2521,-4.51422 -0.41994,-8.40389 -0.16787,-3.88968 -0.33563,-7.16804 -0.37279,-7.28528 -0.0437,-0.1378 -0.96676,0.13483 -2.61172,0.7714 -5.65286,2.18753 -11.13229,3.04314 -19.64414,3.06742 -5.80288,0.0166 -9.00502,-0.39606 -12.03657,-1.55095 -4.01712,-1.5304 -6.32062,-4.15741 -6.77221,-7.72325 l -0.13376,-1.05623 h 45.69115 l -9.5e-4,-4.08713 c -0.003,-4.77709 -0.20749,-7.44252 -0.86879,-11.28602 -2.79389,-16.23781 -12.2391,-25.02092 -29.12596,-27.08424 -2.69701,-0.32952 -11.48865,-0.33079 -14.13858,-0.003 -6.82025,0.84615 -12.52299,2.52908 -17.16106,5.06436 -9.60719,5.25162 -14.93566,13.37653 -16.18309,24.67594 -1.1892,10.77473 1.64383,21.56572 7.32957,27.91704 2.83589,3.16788 6.55985,5.93307 10.25655,7.616 l 1.33283,0.6068 c -8.42501,-0.0458 -25.28635,-0.003 -25.28635,-0.003 0,0 -0.35489,-11.31019 -0.99399,-17.97361 -0.0807,-0.0869 -0.5634,-0.0302 -1.07189,0.1259 -2.83057,0.86903 -7.09864,1.05573 -9.13301,0.39949 -2.2783,-0.73494 -3.7186,-2.72106 -4.1185,-5.67915 -0.2546,-7.99329 -0.182,-22.51752 -0.182,-22.51752 l 14.7917,-0.11146 0.30217,-19.17613 h -15.09067 l -0.098,-21.28227 -33.14926,9.91563 v 11.36664 h -11.6582 l 0.098,19.19579 11.5203,0.0971 c 0,0 -0.9172,20.92639 0.5719,30.22062 0.7329,4.47079 1.8134,7.57146 3.5983,10.32449 0.9761,1.50577 2.8139,3.48013 4.0603,4.36218 0.4284,0.3031 0.7808,0.61308 0.7834,0.68885 -9.9548,0.20911 -28.2728,0.13777 -28.2728,0.13777 v -65.02686 h -33.2446 v 65.02686 h -186.094 v -3.35237 z m 219.3377,-89.77935 h -33.2448 v 19.4693 l 33.1014,0.0375 z m 106.13985,55.66661 c 0,0 0.1015,-3.46383 0.49743,-5.39308 0.48276,-2.35548 1.26939,-3.92954 2.62448,-5.25104 1.5362,-1.4983 2.84044,-1.94677 5.66179,-1.94677 1.88175,0 2.21619,0.0516 3.19748,0.4938 3.11938,1.40553 4.8958,4.932 4.97937,9.88478 l 0.0388,2.29614 z"
       id="path3772"
       style="fill:#fdbb30;fill-opacity:1;stroke-width:1.19898"
       sodipodi:nodetypes="ccsccccccccsccssscsssssssssscscssssscccscsccscsccccccssssssscccsscscssccccsccccccccccccscccccccccccccccccssscc" />
  </g>
</svg>
