<svg fill="none" height="64" viewBox="0 0 64 64" width="64" xmlns="http://www.w3.org/2000/svg" xmlns:xlink="http://www.w3.org/1999/xlink"><linearGradient id="a"><stop offset="0" stop-color="#13adc7"/><stop offset="1" stop-color="#945dd6"/></linearGradient><linearGradient id="b" gradientUnits="userSpaceOnUse" x1="16.4762" x2="44.8677" xlink:href="#a" y1="25.0327" y2="53.4293"/><linearGradient id="c" gradientUnits="userSpaceOnUse" x1="16.4762" x2="44.8677" xlink:href="#a" y1="25.0328" y2="53.4293"/><linearGradient id="d" gradientUnits="userSpaceOnUse" x1="43.2474" x2="14.3236" y1="19.6815" y2="48.6006"><stop offset="0" stop-color="#f46837"/><stop offset="1" stop-color="#945dd6"/></linearGradient><path d="m21.3911 10.208c.2419.0967.4644.2516.6483.4354l4.2667 4.2675.0194-.0097 5.689 5.7093 11.3683 11.3895 5.7083-5.6996-21.3724-21.35656c-1.8867-1.88502-4.4445-2.94384-7.1113-2.94384s-5.2245 1.05882-7.1112 2.94384l-8.55284 8.55426c-1.88471 1.887-2.94336 4.4451-2.94336 7.1124 0 2.6672 1.05865 5.2254 2.94336 7.1124l4.28609 4.2771 5.68895-5.6996-4.257-4.2578c-.1881-.187-.3374-.4094-.4392-.6544-.1019-.2449-.1543-.5076-.1543-.7729s.0524-.528.1543-.7729c.1018-.245.2511-.4674.4392-.6544l8.5335-8.5446c.2818-.2819.641-.4739 1.032-.5514s.7962-.0371 1.1642.116z" fill="url(#b)"/><path d="m41.9702 53.3566-4.2571-4.2578h-.029l-5.689-5.6996h.0097l-11.3877-11.3992-5.6986 5.7093 21.3627 21.3469c1.8867 1.885 4.4445 2.9438 7.1113 2.9438s5.2245-1.0588 7.1112-2.9438l8.5528-8.5543c1.8847-1.887 2.9434-4.4451 2.9434-7.1124 0-2.6672-1.0587-5.2254-2.9434-7.1124l-4.2764-4.2771-5.689 5.7093 4.2571 4.2577c.3769.3774.5887.8891.5887 1.4225 0 .5335-.2118 1.0451-.5887 1.4225l-8.5335 8.5446c-.3773.377-.8889.5887-1.4222.5887-.5334 0-1.045-.2117-1.4223-.5887z" fill="url(#c)"/><path clip-rule="evenodd" d="m53.803 21.3653c-.1064.2516-.2515.4644-.4257.6483l-21.3821 21.3856 5.689 5.6996 21.3627-21.3759c1.8848-1.887 2.9434-4.4452 2.9434-7.1124 0-2.6673-1.0586-5.2254-2.9434-7.1124l-8.5431-8.55426c-1.8867-1.88502-4.4445-2.94384-7.1113-2.94384s-5.2245 1.05882-7.1112 2.94384l-4.2764 4.24808 5.6986 5.69958 4.2571-4.2577c.3774-.377.8889-.5888 1.4223-.5888.5333 0 1.0449.2118 1.4222.5888l8.5335 8.5348c.2836.2808.4773.6395.5565 1.0307.0793.3911.0405.7969-.1114 1.166h.0096zm-31.7539 31.9719 4.2571-4.2578 5.7083 5.6996-4.286 4.2578c-1.8868 1.885-4.4445 2.9438-7.1113 2.9438s-5.2245-1.0588-7.1112-2.9438l-8.55288-8.5446c-1.8847-1.887-2.94335-4.4451-2.94335-7.1124 0-2.6672 1.05865-5.2253 2.94335-7.1124l21.38208-21.3856 5.6793 5.7093-21.353 21.3566c-.1881.187-.3374.4094-.4393.6544-.1018.2449-.1543.5076-.1543.7729s.0525.528.1543.7729c.1019.245.2512.4674.4393.6544l8.5431 8.5349c.3774.377.8889.5888 1.4223.5888.5333 0 1.0449-.2118 1.4222-.5888z" fill="url(#d)" fill-rule="evenodd"/></svg>