<?xml version="1.0" encoding="UTF-8" standalone="no"?>
<svg
   xmlns:dc="http://purl.org/dc/elements/1.1/"
   xmlns:cc="http://creativecommons.org/ns#"
   xmlns:rdf="http://www.w3.org/1999/02/22-rdf-syntax-ns#"
   xmlns:svg="http://www.w3.org/2000/svg"
   xmlns="http://www.w3.org/2000/svg"
   viewBox="0 0 1365.3333 1365.3333"
   height="1365.3333"
   width="1365.3333"
   id="svg4588"
   version="1.1">
  <metadata
     id="metadata4594">
    <rdf:RDF>
      <cc:Work
         rdf:about="">
        <dc:format>image/svg+xml</dc:format>
        <dc:type
           rdf:resource="http://purl.org/dc/dcmitype/StillImage" />
        <dc:title></dc:title>
      </cc:Work>
    </rdf:RDF>
  </metadata>
  <defs
     id="defs4592" />
  <g
     transform="translate(3.127897,3.127911)"
     id="g4660">
    <path
       id="path4668"
       d="M 0,682.66665 V 0 H 682.66665 1365.3333 V 682.66665 1365.3333 H 682.66665 0 Z"
       style="fill:#fdfdfd;stroke-width:2.66666651" />
    <path
       id="path4666"
       d="m 628.05372,1223.8661 -15.94624,-2.4941 -21.38709,-5.5406 -21.38707,-5.5405 -22.24939,-10.4227 -22.24938,-10.4227 -17.34022,-12.3737 -17.34024,-12.3737 -14.84613,-15.0157 -14.84613,-15.0158 -11.75427,-18.094 -11.75424,-18.094 -7.47672,-18.1312 -7.47672,-18.1312 -4.3277,-17.2563 -4.32771,-17.2562 -2.74651,-27.85188 -2.74648,-27.85184 0.74091,-188 0.74093,-187.99999 h 72 72 l 1.33608,198.66666 1.33608,198.66666 4.40189,10.92599 4.40192,10.926 5.46987,10.7218 5.46987,10.7218 13.31845,14.5725 13.31848,14.5726 15.69088,8.3631 15.6909,8.3632 15.67638,4.0832 15.6764,4.0831 h 17.54613 17.54613 l 15.69398,-4.0877 15.69394,-4.0878 13.14414,-7.1539 13.1441,-7.1539 11.41755,-10.0502 11.41757,-10.0501 8.41424,-13.1124 8.41421,-13.1125 5.8904,-15.5957 5.8904,-15.59576 1.33334,-197.33333 1.33333,-197.33332 h 72 72 l 0.78112,185.33332 0.78112,185.33333 -2.79675,29.63451 -2.79672,29.63455 -5.28253,21.0321 -5.28254,21.0322 -13.17984,26.7417 -13.17984,26.7418 -16.50546,18.0128 -16.50549,18.0128 -15.48584,11.9161 -15.48582,11.9161 -19.83213,10.6973 -19.83216,10.6973 -19.69856,6.7582 -19.69856,6.7583 -17.33333,4.0128 -17.33333,4.0129 -46.66667,1.0411 -46.66667,1.0411 z m -217.8569,-845.72787 0.86346,-80.8049 135.86496,-80.64528 135.86496,-80.64528 135.79775,80.64528 135.79776,80.64528 0.80715,80.8049 0.80712,80.80488 -4,-1.12299 -4,-1.12301 -132.78536,-78.84981 -132.78536,-78.84981 -132.54797,78.90087 -132.54797,78.90091 -4,1.07192 -4,1.07192 z"
       style="fill:#ababab;stroke-width:2.66666651" />
    <path
       id="path4664"
       d="m 638.66665,1223.575 -21.33333,-2.394 -24.75597,-6.551 -24.75598,-6.551 -19.56906,-9.0415 -19.56907,-9.0415 -17.00829,-11.4165 -17.0083,-11.4164 -19.99999,-20.4322 -20,-20.4322 -11.20275,-19.816 -11.20275,-19.8161 -7.94512,-24 -7.94514,-24 -2.85214,-20.8596 -2.8521,-20.85961 V 797.14035 597.33332 h 70.56847 70.56846 l 0.79413,195.33333 0.79413,195.33333 5.64187,14.79492 5.64187,14.795 5.53672,10.8528 5.53672,10.8529 13.31845,14.5725 13.31848,14.5725 15.69088,8.3632 15.6909,8.3632 15.67638,4.0831 15.6764,4.0832 h 17.54613 17.54613 l 15.69398,-4.0878 15.69394,-4.0877 13.53299,-7.2345 13.53296,-7.2345 14.8541,-14.6777 14.85414,-14.6778 8.49637,-17.3333 8.4964,-17.3334 3.93653,-18.66662 3.93651,-18.66667 0.0464,-186 0.0462,-185.99999 h 70.66667 70.66666 l -0.0107,199.33333 -0.0107,199.33333 -3.90344,24.00002 -3.90344,24 -5.66883,17.3333 -5.66885,17.3333 -10.82427,20.8784 -10.82429,20.8783 -20.04989,21.3132 -20.04989,21.3131 -16.40048,11.7032 -16.40051,11.7031 -22.47565,10.7168 -22.47568,10.7169 -25.33334,6.5898 -25.33333,6.5899 -25.8949,2.7987 -25.89488,2.7986 -16.77179,-0.3488 -16.77176,-0.3487 -21.33333,-2.3941 z m -227.37269,-845.22408 0.70603,-80.67917 32,-19.13544 32,-19.13546 101.70525,-60.36709 101.70528,-60.3671 h 3.266 3.266 l 108.36205,64.35178 108.36207,64.35179 25.33334,15.15992 25.33333,15.15992 0.70603,80.67 0.70605,80.67 -2.03939,-1.13723 -2.03936,-1.13722 -134.03242,-79.2996 -134.03245,-79.29963 -133.96754,79.29224 -133.96757,79.29227 -2.03936,1.14458 -2.03939,1.14459 z"
       style="fill:#a333ef;stroke-width:2.66666651" />
    <path
       id="path4662"
       d="m 638.66665,1223.575 -21.33333,-2.394 -24.75597,-6.551 -24.75598,-6.551 -19.56906,-9.0415 -19.56907,-9.0415 -17.00829,-11.4165 -17.0083,-11.4164 -19.99999,-20.4322 -20,-20.4322 -11.20275,-19.816 -11.20275,-19.8161 -7.94512,-24 -7.94514,-24 -2.85214,-20.8596 -2.8521,-20.85961 V 797.14035 597.33332 h 70.56847 70.56846 l 0.79413,195.33333 0.79413,195.33333 5.64187,14.79492 5.64187,14.795 5.53672,10.8528 5.53672,10.8529 13.31845,14.5725 13.31848,14.5725 15.69088,8.3632 15.6909,8.3632 15.67638,4.0831 15.6764,4.0832 h 17.54613 17.54613 l 15.69398,-4.0878 15.69394,-4.0877 13.53299,-7.2345 13.53296,-7.2345 14.8541,-14.6777 14.85414,-14.6778 8.49637,-17.3333 8.4964,-17.3334 3.93653,-18.66662 3.93651,-18.66667 0.0464,-186 0.0462,-185.99999 h 70.66667 70.66666 l -0.0107,199.33333 -0.0107,199.33333 -3.90344,24.00002 -3.90344,24 -5.66883,17.3333 -5.66885,17.3333 -10.82427,20.8784 -10.82429,20.8783 -20.04989,21.3132 -20.04989,21.3131 -16.40048,11.7032 -16.40051,11.7031 -22.47565,10.7168 -22.47568,10.7169 -25.33334,6.5898 -25.33333,6.5899 -25.8949,2.7987 -25.89488,2.7986 -16.77179,-0.3488 -16.77176,-0.3487 -21.33333,-2.3941 z"
       style="fill:#000000;stroke-width:2.66666651" />
  </g>
</svg>
